HIERARCHY
ROOT Hips
{
	OFFSET 0.000000 0.000000 0.000000
	CHANNELS 6 Xposition Yposition Zposition Zrotation Yrotation Xrotation 
	JOINT LHipJoint
	{
		OFFSET 0.000000 0.000000 0.000000
		CHANNELS 3 Zrotation Yrotation Xrotation
		JOINT LeftUpLeg
		{
			OFFSET 1.363060 -1.794630 0.839290
			CHANNELS 3 Zrotation Yrotation Xrotation
			JOINT LeftLeg
			{
				OFFSET 2.448110 -6.726130 0.000000
				CHANNELS 3 Zrotation Yrotation Xrotation
				JOINT LeftFoot
				{
					OFFSET 2.562200 -7.039590 0.000000
					CHANNELS 3 Zrotation Yrotation Xrotation
					JOINT LeftToeBase
					{
						OFFSET 0.157640 -0.433110 2.322550
						CHANNELS 3 Zrotation Yrotation Xrotation
						End Site
						{
							OFFSET 0.000000 0.000000 0.000000
						}
					}
				}
			}
		}
	}
	JOINT RHipJoint
	{
		OFFSET 0.000000 0.000000 0.000000
		CHANNELS 3 Zrotation Yrotation Xrotation
		JOINT RightUpLeg
		{
			OFFSET -1.305520 -1.794630 0.839290
			CHANNELS 3 Zrotation Yrotation Xrotation
			JOINT RightLeg
			{
				OFFSET -2.542530 -6.985550 0.000000
				CHANNELS 3 Zrotation Yrotation Xrotation
				JOINT RightFoot
				{
					OFFSET -2.568260 -7.056230 0.000000
					CHANNELS 3 Zrotation Yrotation Xrotation
					JOINT RightToeBase
					{
						OFFSET -0.164730 -0.452590 2.363150
						CHANNELS 3 Zrotation Yrotation Xrotation
						End Site
						{
							OFFSET 0.000000 0.000000 0.000000
						}
					}
				}
			}
		}
	}
	JOINT LowerBack
	{
		OFFSET 0.000000 0.000000 0.000000
		CHANNELS 3 Zrotation Yrotation Xrotation
		JOINT Spine
		{
			OFFSET 0.028270 2.035590 -0.193380
			CHANNELS 3 Zrotation Yrotation Xrotation
			JOINT Spine1
			{
				OFFSET 0.056720 2.048850 -0.042750
				CHANNELS 3 Zrotation Yrotation Xrotation
				JOINT Neck
				{
					OFFSET 0.000000 0.000000 0.000000
					CHANNELS 3 Zrotation Yrotation Xrotation
					JOINT Neck1
					{
						OFFSET -0.054170 1.746240 0.172020
						CHANNELS 3 Zrotation Yrotation Xrotation
						JOINT Head
						{
							OFFSET 0.104070 1.761360 -0.123970
							CHANNELS 3 Zrotation Yrotation Xrotation
							End Site
							{
								OFFSET 0.000000 0.000000 0.000000
							}
						}
					}
				}
				JOINT LeftShoulder
				{
					OFFSET 0.000000 0.000000 0.000000
					CHANNELS 3 Zrotation Yrotation Xrotation
					JOINT LeftArm
					{
						OFFSET 3.362410 1.200890 -0.311210
						CHANNELS 3 Zrotation Yrotation Xrotation
						JOINT LeftForeArm
						{
							OFFSET 4.983000 -0.000000 -0.000000
							CHANNELS 3 Zrotation Yrotation Xrotation
							JOINT LeftHand
							{
								OFFSET 3.483560 -0.000000 -0.000000
								CHANNELS 3 Zrotation Yrotation Xrotation
								JOINT LeftFingerBase
								{
									OFFSET 0.000000 0.000000 0.000000
									CHANNELS 3 Zrotation Yrotation Xrotation
									JOINT LeftHandIndex1
									{
										OFFSET 0.715260 -0.000000 -0.000000
										CHANNELS 3 Zrotation Yrotation Xrotation
										End Site
										{
											OFFSET 0.000000 0.000000 0.000000
										}
									}
								}
								JOINT LThumb
								{
									OFFSET 0.000000 0.000000 0.000000
									CHANNELS 3 Zrotation Yrotation Xrotation
									End Site
									{
										OFFSET 0.000000 0.000000 0.000000
									}
								}
							}
						}
					}
				}
				JOINT RightShoulder
				{
					OFFSET 0.000000 0.000000 0.000000
					CHANNELS 3 Zrotation Yrotation Xrotation
					JOINT RightArm
					{
						OFFSET -3.136600 1.374050 -0.404650
						CHANNELS 3 Zrotation Yrotation Xrotation
						JOINT RightForeArm
						{
							OFFSET -5.241900 -0.000000 -0.000000
							CHANNELS 3 Zrotation Yrotation Xrotation
							JOINT RightHand
							{
								OFFSET -3.444170 -0.000000 -0.000000
								CHANNELS 3 Zrotation Yrotation Xrotation
								JOINT RightFingerBase
								{
									OFFSET 0.000000 0.000000 0.000000
									CHANNELS 3 Zrotation Yrotation Xrotation
									JOINT RightHandIndex1
									{
										OFFSET -0.622530 -0.000000 -0.000000
										CHANNELS 3 Zrotation Yrotation Xrotation
										End Site
										{
											OFFSET 0.000000 0.000000 0.000000
										}
									}
								}
								JOINT RThumb
								{
									OFFSET 0.000000 0.000000 0.000000
									CHANNELS 3 Zrotation Yrotation Xrotation
									End Site
									{
										OFFSET 0.000000 0.000000 0.000000
									}
								}
							}
						}
					}
				}
			}
		}
	}
}
MOTION
Frames: 4
Frame Time: 0.008333
16.445022 17.513264 25.576084 -175.462116 10.033995 -170.996218 10.517558 1.531814 0.692436 -16.664207 -22.801621 -33.474248 1.136226 10.942728 26.344189 2.012043 15.004844 10.384283 0.264700 -3.309800 -9.142400 -14.583049 -3.592372 -6.784124 38.304213 -1.973863 16.681925 -4.145212 -11.286297 42.741867 -2.545208 -21.701719 13.059309 -0.760400 5.568900 -15.538600 4.224229 8.085591 -0.798610 -2.147254 10.658029 -4.100444 -8.654895 5.923625 7.552954 1.728010 -6.449828 -25.164354 6.786888 -15.666547 16.676036 -2.723900 -4.574900 26.292900 9.802706 4.172436 -1.200954 -60.948473 32.650629 70.279795 115.071723 -58.139446 -76.844969 1.448055 -0.103846 17.520049 17.004795 5.955033 1.571700 -7.125000 0.000000 0.000000 -9.276300 35.707100 2.141400 -11.167892 0.659236 0.552265 97.897393 -9.912297 48.793280 -118.373806 53.950420 -74.445380 0.190174 -2.020112 7.076264 -14.366566 -2.275828 0.058500 7.125000 0.000000 0.000000 9.248400 -30.140000 3.393900 
16.427494 17.425835 25.179980 -175.541255 10.015276 -171.369473 10.545290 1.609282 0.580359 -18.161617 -21.502547 -32.546750 1.193377 10.948474 26.535187 2.030956 14.650754 10.783129 0.274800 -3.372000 -9.316200 -14.339670 -3.577314 -6.521366 37.737975 -1.778597 15.266981 -5.012534 -12.257510 46.474669 -2.419272 -21.442548 12.010682 -0.837000 5.835900 -16.309100 4.524689 8.721682 -0.240637 -2.594414 11.854399 -4.185547 -10.537756 6.677260 7.206582 3.733448 -7.235215 -24.888771 6.708859 -18.172217 16.861277 -3.570900 -4.999200 25.717000 9.651038 4.173507 -1.330650 -57.470130 30.184597 73.038126 114.445244 -58.072988 -76.403743 1.456683 -0.102617 17.393227 17.264529 5.928658 1.590900 -7.125000 0.000000 0.000000 -9.065100 35.692700 2.094900 -11.301618 0.880851 0.651073 101.566254 -11.413004 44.997617 -118.001204 54.170721 -73.659439 0.277400 -2.162045 7.589719 -14.377951 -2.712480 0.140600 7.125000 0.000000 0.000000 9.170800 -30.453800 3.295100 
16.406923 17.328541 24.779259 -176.007128 9.970469 -171.701085 10.396401 1.577381 0.396211 -19.690237 -20.402387 -31.820686 1.319958 11.160024 27.276669 2.036690 14.051021 11.187411 0.317500 -3.622000 -10.015700 -14.245327 -3.641451 -6.323068 36.860650 -1.667523 13.923550 -5.920612 -13.141667 50.158325 -2.278165 -21.389478 10.851026 -0.807300 5.734200 -16.015200 3.741484 7.337647 -0.639008 -1.915888 9.612154 -3.985263 -8.083886 5.392511 7.827139 1.582883 -5.422772 -25.399238 6.604066 -14.023827 16.719324 -2.662800 -4.086900 26.546300 9.938892 4.102969 -1.101700 -64.043632 32.076380 68.169794 113.530557 -58.502803 -75.358140 1.485585 -0.114808 18.069724 17.481343 5.203646 1.397700 -7.125000 0.000000 0.000000 -8.807600 34.937000 2.198000 -11.077919 0.544313 0.597922 97.611178 -11.052908 48.469089 -115.713095 54.839042 -71.439050 0.244768 -2.137730 7.333419 -14.624555 -3.373726 0.325400 7.125000 0.000000 0.000000 9.079800 -31.146900 3.109000 
16.384987 17.227049 24.379691 -176.457702 9.781975 -172.061399 10.247006 1.593132 0.177380 -21.607500 -18.748851 -30.807950 1.539668 11.425002 28.102299 1.696715 11.979753 8.930402 0.065800 -1.654700 -4.552300 -14.106699 -3.683179 -6.101673 35.925481 -1.679021 12.352270 -6.831182 -13.943568 53.657449 -2.165576 -21.148007 9.897224 -0.827400 5.803400 -16.214900 3.064746 6.531922 -0.697812 -1.559152 8.395207 -3.855348 -6.711537 4.685702 8.257417 0.582251 -4.628868 -25.893635 6.505351 -11.964804 16.517857 -2.268600 -3.630800 26.720800 10.092541 4.043703 -0.960874 -67.724118 32.116812 65.617990 112.574109 -58.798779 -74.375605 1.489427 -0.076326 18.594075 17.650578 5.393785 1.454100 -7.125000 0.000000 0.000000 -8.676900 35.086500 2.132800 -10.948215 0.368589 0.604946 95.853832 -11.345157 49.389912 -114.060254 55.345947 -69.783961 0.260069 -2.150758 6.747251 -14.705948 -3.926705 0.472400 7.125000 0.000000 0.000000 9.074500 -31.694300 2.986400 
